<svg width="512" height="512" viewBox="0 0 512 512" fill="none" xmlns="http://www.w3.org/2000/svg">
<path fill-rule="evenodd" clip-rule="evenodd" d="M256 512C397.385 512 512 397.385 512 256C512 202.209 495.41 152.294 467.067 111.09C455.233 139.795 426.976 160 394 160C350.37 160 315 124.63 315 81C315 54.6357 327.915 31.2878 347.763 16.9373C319.276 5.99616 288.338 0 256 0C114.615 0 0 114.615 0 256C0 397.385 114.615 512 256 512Z" fill="#60A5FA"/>
<path d="M208.788 349.684L208.927 348.096C210.578 331.264 213.515 318.011 217.739 308.338C221.962 298.664 227.432 291.01 234.146 285.375C240.861 279.741 248.767 274.7 257.867 270.252C263.349 267.532 268.352 264.193 272.875 260.233C277.407 256.186 281.114 251.4 283.997 245.875C286.969 240.357 288.759 234.115 289.369 227.147C290.125 218.502 288.752 210.828 285.25 204.122C281.749 197.416 276.752 192.046 270.261 188.012C263.771 183.978 256.38 181.598 248.088 180.873C240.856 180.24 233.756 181.13 226.79 183.542C219.824 185.955 213.81 190.184 208.749 196.229C203.687 202.274 200.348 210.47 198.732 220.817L165.39 217.9C167.408 202.967 172.412 190.472 180.402 180.417C188.48 170.369 198.588 163.032 210.725 158.406C222.95 153.787 236.207 152.103 250.496 153.353C266.02 154.711 279.245 158.979 290.172 166.156C301.186 173.342 309.354 182.589 314.675 193.897C320.085 205.214 322.187 217.752 320.983 231.512C320.135 241.215 317.867 249.86 314.182 257.448C310.584 265.043 305.737 271.685 299.64 277.373C293.631 283.069 286.537 287.959 278.358 292.043C270.172 296.215 263.506 300.787 258.36 305.759C253.222 310.642 249.275 316.652 246.517 323.787C243.76 330.923 241.814 339.952 240.681 350.874L240.542 352.462L208.788 349.684ZM218.871 429.491C212.344 428.92 206.947 426.092 202.682 421.009C198.416 415.925 196.568 410.119 197.139 403.592C197.71 397.065 200.538 391.668 205.622 387.403C210.706 383.137 216.511 381.289 223.038 381.86C229.565 382.431 234.962 385.259 239.228 390.343C243.494 395.427 245.341 401.232 244.77 407.759C244.392 412.081 242.942 415.954 240.421 419.378C237.987 422.809 234.866 425.469 231.057 427.357C227.343 429.166 223.281 429.877 218.871 429.491Z" fill="white"/>
</svg>
